<svg xmlns="http://www.w3.org/2000/svg"  viewBox="0 0 100 100" width="32px" height="32px"><polygon fill="#a2b4cc" points="48,17 30,6 30,68 48,62"/><polygon fill="#a2b4cc" points="52,17 70,6 70,68 52,62"/><path fill="#1f212b" d="M30,69c-0.207,0-0.412-0.064-0.585-0.189C29.154,68.623,29,68.321,29,68V6 c0-0.362,0.195-0.695,0.511-0.872c0.317-0.177,0.702-0.169,1.011,0.019l18,11C48.818,16.329,49,16.652,49,17v45 c0,0.431-0.275,0.813-0.684,0.949l-18,6C30.213,68.983,30.106,69,30,69z M31,7.783v58.83l16-5.333V17.561L31,7.783z"/><path fill="#1f212b" d="M70,69c-0.106,0-0.213-0.017-0.316-0.051l-18-6C51.275,62.813,51,62.431,51,62V17 c0-0.348,0.182-0.671,0.479-0.854l18-11c0.31-0.188,0.695-0.196,1.011-0.019C70.805,5.305,71,5.638,71,6v62 c0,0.321-0.154,0.623-0.415,0.811C70.412,68.936,70.207,69,70,69z M53,61.279l16,5.333V7.783l-16,9.778V61.279z"/><path fill="#1f212b" d="M66.5,17c-0.276,0-0.5-0.224-0.5-0.5v-3c0-0.276,0.224-0.5,0.5-0.5s0.5,0.224,0.5,0.5v3 C67,16.776,66.776,17,66.5,17z"/><path fill="#1f212b" d="M66.5,63c-0.276,0-0.5-0.224-0.5-0.5v-43c0-0.276,0.224-0.5,0.5-0.5s0.5,0.224,0.5,0.5v43 C67,62.776,66.776,63,66.5,63z"/><polygon fill="#a2b4cc" stroke="#1f212b" stroke-linejoin="round" stroke-miterlimit="10" points="45.23,77.5 47.9,77.5 47.9,94.5 52.1,94.5 52.1,77.5 54.77,77.5 56.5,73.5 43.5,73.5"/><path fill="#a2b4cc" stroke="#1f212b" stroke-linejoin="round" stroke-miterlimit="10" d="M35.8,73.5h-6.3v21h6.3 c2.316,0,4.2-1.884,4.2-4.2v-4.2c0-0.769-0.223-1.48-0.584-2.1C39.777,83.381,40,82.669,40,81.9v-4.2 C40,75.384,38.116,73.5,35.8,73.5z M33.5,77.5h2v4h-2V77.5z M33.5,90.5v-4h2v4H33.5z"/><path fill="#a2b4cc" stroke="#1f212b" stroke-linejoin="round" stroke-miterlimit="10" d="M66.3,73.5h-2.1 c-2.316,0-4.2,1.884-4.2,4.2v3.076c0,1.407,0.699,2.713,1.871,3.494l4.429,2.953V90.5h-2.1v-2H60v1.8c0,2.316,1.884,4.2,4.2,4.2 h2.1c2.316,0,4.2-1.884,4.2-4.2v-3.076c0-1.407-0.699-2.713-1.871-3.494L64.2,80.776V77.5h2.1v2h4.2v-1.8 C70.5,75.384,68.616,73.5,66.3,73.5z"/></svg>